<?xml version="1.0" encoding="iso-8859-1"?>
<!-- Uploaded to: SVG Repo, www.svgrepo.com, Generator: SVG Repo Mixer Tools -->
<svg height="800px" width="800px" version="1.1" id="Layer_1" xmlns="http://www.w3.org/2000/svg" xmlns:xlink="http://www.w3.org/1999/xlink" 
	 viewBox="0 0 512 512" xml:space="preserve">
<path style="fill:#FF675C;" d="M256,185.399c-67.84,0-122.834,54.995-122.834,122.834S188.16,431.067,256,431.067
	s122.834-54.994,122.834-122.834S323.839,185.399,256,185.399z M256,394.332c-47.551,0-86.099-38.548-86.099-86.099
	s38.548-86.099,86.099-86.099s86.099,38.548,86.099,86.099S303.551,394.332,256,394.332z"/>
<g>
	<path style="fill:#5293C4;" d="M256,275.516c-4.755,0-8.61-3.855-8.61-8.61V165.883c0-4.755,3.855-8.61,8.61-8.61
		c4.755,0,8.61,3.855,8.61,8.61v101.022C264.61,271.661,260.755,275.516,256,275.516z"/>
	<path style="fill:#5293C4;" d="M128.753,394.907c-2.976,0-5.87-1.544-7.464-4.306c-2.377-4.118-0.967-9.384,3.151-11.761
		l87.488-50.511c4.118-2.378,9.384-0.967,11.761,3.151c2.377,4.118,0.967,9.384-3.151,11.761l-87.488,50.511
		C131.694,394.535,130.213,394.907,128.753,394.907z"/>
	<path style="fill:#5293C4;" d="M383.247,394.907c-1.46,0-2.941-0.372-4.297-1.155l-87.488-50.511
		c-4.118-2.377-5.529-7.643-3.151-11.761c2.377-4.118,7.643-5.53,11.761-3.151l87.488,50.511c4.118,2.378,5.529,7.643,3.151,11.761
		C389.117,393.363,386.223,394.907,383.247,394.907z"/>
</g>
<circle style="fill:#5CC4E0;" cx="256" cy="308.233" r="75.767"/>
<circle style="fill:#BEE7F3;" cx="272.072" cy="292.161" r="27.552"/>
<circle style="fill:#5CC4E0;" cx="256" cy="98.152" r="75.767"/>
<circle style="fill:#BEE7F3;" cx="272.072" cy="82.081" r="27.552"/>
<circle style="fill:#5CC4E0;" cx="75.767" cy="413.848" r="75.767"/>
<circle style="fill:#BEE7F3;" cx="91.839" cy="397.776" r="27.552"/>
<circle style="fill:#5CC4E0;" cx="436.233" cy="413.848" r="75.767"/>
<circle style="fill:#BEE7F3;" cx="452.305" cy="397.776" r="27.552"/>
</svg>